<svg width="100" height="100" viewBox="0 0 100 100" fill="none" xmlns="http://www.w3.org/2000/svg">
<path d="M71.4694 62.8931H66.9525L65.3516 61.3493C70.9548 54.8313 74.3282 46.3694 74.3282 37.1641C74.3282 16.6381 57.6901 0 37.1641 0C16.6381 0 0 16.6381 0 37.1641C0 57.6901 16.6381 74.3282 37.1641 74.3282C46.3694 74.3282 54.8313 70.9548 61.3493 65.3516L62.8931 66.9525V71.4694L91.4809 100L100 91.4809L71.4694 62.8931V62.8931ZM37.1641 62.8931C22.9274 62.8931 11.4351 51.4008 11.4351 37.1641C11.4351 22.9274 22.9274 11.4351 37.1641 11.4351C51.4008 11.4351 62.8931 22.9274 62.8931 37.1641C62.8931 51.4008 51.4008 62.8931 37.1641 62.8931Z"/>
</svg>
